<mxfile host="Electron" modified="2024-03-20T17:21:36.536Z" agent="Mozilla/5.0 (Windows NT 10.0; Win64; x64) AppleWebKit/537.36 (KHTML, like Gecko) draw.io/23.1.5 Chrome/120.0.6099.109 Electron/28.1.0 Safari/537.36" etag="C6UdUazrB44GUqKzDLtI" version="23.1.5" type="device">
  <diagram name="Page-1" id="zOgTu134uBvQY2l2l4bX">
    <mxGraphModel dx="1894" dy="828" grid="1" gridSize="10" guides="1" tooltips="1" connect="1" arrows="1" fold="1" page="1" pageScale="1" pageWidth="3300" pageHeight="4681" math="0" shadow="0">
      <root>
        <mxCell id="0" />
        <mxCell id="1" parent="0" />
        <mxCell id="D90SZqqs-kmXxJXCQJgX-25" style="edgeStyle=orthogonalEdgeStyle;rounded=0;orthogonalLoop=1;jettySize=auto;html=1;exitX=1;exitY=0.5;exitDx=0;exitDy=0;entryX=0;entryY=0.5;entryDx=0;entryDy=0;strokeWidth=3;" edge="1" parent="1" source="D90SZqqs-kmXxJXCQJgX-1" target="D90SZqqs-kmXxJXCQJgX-2">
          <mxGeometry relative="1" as="geometry" />
        </mxCell>
        <mxCell id="D90SZqqs-kmXxJXCQJgX-1" value="Passthrough" style="rounded=1;whiteSpace=wrap;html=1;fillColor=#d5e8d4;strokeColor=#82b366;fontSize=18;fontStyle=1" vertex="1" parent="1">
          <mxGeometry x="240" y="760" width="160" height="120" as="geometry" />
        </mxCell>
        <mxCell id="D90SZqqs-kmXxJXCQJgX-26" style="edgeStyle=orthogonalEdgeStyle;rounded=0;orthogonalLoop=1;jettySize=auto;html=1;exitX=1;exitY=0.5;exitDx=0;exitDy=0;entryX=0;entryY=0.5;entryDx=0;entryDy=0;strokeWidth=3;" edge="1" parent="1" source="D90SZqqs-kmXxJXCQJgX-2" target="D90SZqqs-kmXxJXCQJgX-5">
          <mxGeometry relative="1" as="geometry" />
        </mxCell>
        <mxCell id="D90SZqqs-kmXxJXCQJgX-2" value="Filter" style="rounded=1;whiteSpace=wrap;html=1;fillColor=#d5e8d4;strokeColor=#82b366;fontSize=18;fontStyle=1" vertex="1" parent="1">
          <mxGeometry x="520" y="760" width="160" height="120" as="geometry" />
        </mxCell>
        <mxCell id="D90SZqqs-kmXxJXCQJgX-20" style="edgeStyle=orthogonalEdgeStyle;rounded=0;orthogonalLoop=1;jettySize=auto;html=1;exitX=0.5;exitY=1;exitDx=0;exitDy=0;entryX=0.5;entryY=0;entryDx=0;entryDy=0;strokeWidth=3;" edge="1" parent="1" source="D90SZqqs-kmXxJXCQJgX-3" target="D90SZqqs-kmXxJXCQJgX-16">
          <mxGeometry relative="1" as="geometry" />
        </mxCell>
        <mxCell id="D90SZqqs-kmXxJXCQJgX-3" value="Passthrough" style="rounded=1;whiteSpace=wrap;html=1;fillColor=#d5e8d4;strokeColor=#82b366;fontSize=18;fontStyle=1" vertex="1" parent="1">
          <mxGeometry x="1080" y="760" width="160" height="120" as="geometry" />
        </mxCell>
        <mxCell id="D90SZqqs-kmXxJXCQJgX-27" style="edgeStyle=orthogonalEdgeStyle;rounded=0;orthogonalLoop=1;jettySize=auto;html=1;exitX=1;exitY=0.5;exitDx=0;exitDy=0;entryX=0;entryY=0.5;entryDx=0;entryDy=0;strokeWidth=3;" edge="1" parent="1" source="D90SZqqs-kmXxJXCQJgX-5" target="D90SZqqs-kmXxJXCQJgX-3">
          <mxGeometry relative="1" as="geometry" />
        </mxCell>
        <mxCell id="D90SZqqs-kmXxJXCQJgX-5" value="Gain" style="rounded=1;whiteSpace=wrap;html=1;fillColor=#d5e8d4;strokeColor=#82b366;fontSize=18;fontStyle=1" vertex="1" parent="1">
          <mxGeometry x="800" y="760" width="160" height="120" as="geometry" />
        </mxCell>
        <mxCell id="D90SZqqs-kmXxJXCQJgX-6" value="" style="endArrow=none;html=1;rounded=0;strokeWidth=4;" edge="1" parent="1">
          <mxGeometry width="50" height="50" relative="1" as="geometry">
            <mxPoint x="160" y="960" as="sourcePoint" />
            <mxPoint x="1320" y="960" as="targetPoint" />
          </mxGeometry>
        </mxCell>
        <mxCell id="D90SZqqs-kmXxJXCQJgX-11" style="edgeStyle=orthogonalEdgeStyle;rounded=0;orthogonalLoop=1;jettySize=auto;html=1;exitX=0.25;exitY=0;exitDx=0;exitDy=0;entryX=0.5;entryY=1;entryDx=0;entryDy=0;strokeWidth=3;" edge="1" parent="1" source="D90SZqqs-kmXxJXCQJgX-8" target="D90SZqqs-kmXxJXCQJgX-2">
          <mxGeometry relative="1" as="geometry" />
        </mxCell>
        <mxCell id="D90SZqqs-kmXxJXCQJgX-12" style="edgeStyle=orthogonalEdgeStyle;rounded=0;orthogonalLoop=1;jettySize=auto;html=1;exitX=0.75;exitY=0;exitDx=0;exitDy=0;entryX=0.5;entryY=1;entryDx=0;entryDy=0;strokeWidth=3;" edge="1" parent="1" source="D90SZqqs-kmXxJXCQJgX-8" target="D90SZqqs-kmXxJXCQJgX-5">
          <mxGeometry relative="1" as="geometry" />
        </mxCell>
        <mxCell id="D90SZqqs-kmXxJXCQJgX-18" style="edgeStyle=orthogonalEdgeStyle;rounded=0;orthogonalLoop=1;jettySize=auto;html=1;exitX=0.5;exitY=1;exitDx=0;exitDy=0;entryX=0.5;entryY=0;entryDx=0;entryDy=0;startArrow=classic;startFill=1;strokeWidth=3;" edge="1" parent="1" source="D90SZqqs-kmXxJXCQJgX-8" target="D90SZqqs-kmXxJXCQJgX-17">
          <mxGeometry relative="1" as="geometry" />
        </mxCell>
        <mxCell id="D90SZqqs-kmXxJXCQJgX-23" style="edgeStyle=orthogonalEdgeStyle;rounded=0;orthogonalLoop=1;jettySize=auto;html=1;exitX=0;exitY=0.5;exitDx=0;exitDy=0;entryX=1;entryY=0.5;entryDx=0;entryDy=0;strokeWidth=3;" edge="1" parent="1" source="D90SZqqs-kmXxJXCQJgX-8" target="D90SZqqs-kmXxJXCQJgX-13">
          <mxGeometry relative="1" as="geometry" />
        </mxCell>
        <mxCell id="D90SZqqs-kmXxJXCQJgX-24" style="edgeStyle=orthogonalEdgeStyle;rounded=0;orthogonalLoop=1;jettySize=auto;html=1;exitX=1;exitY=0.5;exitDx=0;exitDy=0;entryX=0;entryY=0.5;entryDx=0;entryDy=0;strokeWidth=3;" edge="1" parent="1" source="D90SZqqs-kmXxJXCQJgX-8" target="D90SZqqs-kmXxJXCQJgX-16">
          <mxGeometry relative="1" as="geometry" />
        </mxCell>
        <mxCell id="D90SZqqs-kmXxJXCQJgX-8" value="Processing System" style="rounded=0;whiteSpace=wrap;html=1;fillColor=#f8cecc;strokeColor=#b85450;fontSize=18;fontStyle=1" vertex="1" parent="1">
          <mxGeometry x="600" y="1120" width="280" height="80" as="geometry" />
        </mxCell>
        <mxCell id="D90SZqqs-kmXxJXCQJgX-22" style="edgeStyle=orthogonalEdgeStyle;rounded=0;orthogonalLoop=1;jettySize=auto;html=1;exitX=0.5;exitY=0;exitDx=0;exitDy=0;entryX=0.5;entryY=1;entryDx=0;entryDy=0;strokeWidth=3;" edge="1" parent="1" source="D90SZqqs-kmXxJXCQJgX-13" target="D90SZqqs-kmXxJXCQJgX-1">
          <mxGeometry relative="1" as="geometry" />
        </mxCell>
        <mxCell id="D90SZqqs-kmXxJXCQJgX-13" value="gen2s" style="rounded=1;whiteSpace=wrap;html=1;fillColor=#ffe6cc;strokeColor=#d79b00;fontSize=18;fontStyle=1" vertex="1" parent="1">
          <mxGeometry x="240" y="1020" width="160" height="80" as="geometry" />
        </mxCell>
        <mxCell id="D90SZqqs-kmXxJXCQJgX-14" value="&lt;font style=&quot;font-size: 24px;&quot;&gt;&lt;b&gt;AIE Array&lt;/b&gt;&lt;/font&gt;" style="text;html=1;align=center;verticalAlign=middle;whiteSpace=wrap;rounded=0;" vertex="1" parent="1">
          <mxGeometry x="160" y="920" width="140" height="30" as="geometry" />
        </mxCell>
        <mxCell id="D90SZqqs-kmXxJXCQJgX-15" value="&lt;font style=&quot;font-size: 24px;&quot;&gt;&lt;b&gt;PL&lt;/b&gt;&lt;/font&gt;" style="text;html=1;align=center;verticalAlign=middle;whiteSpace=wrap;rounded=0;" vertex="1" parent="1">
          <mxGeometry x="160" y="970" width="140" height="30" as="geometry" />
        </mxCell>
        <mxCell id="D90SZqqs-kmXxJXCQJgX-16" value="s2mm" style="rounded=1;whiteSpace=wrap;html=1;fillColor=#ffe6cc;strokeColor=#d79b00;fontSize=18;fontStyle=1" vertex="1" parent="1">
          <mxGeometry x="1080" y="1020" width="160" height="80" as="geometry" />
        </mxCell>
        <mxCell id="D90SZqqs-kmXxJXCQJgX-19" style="edgeStyle=orthogonalEdgeStyle;rounded=0;orthogonalLoop=1;jettySize=auto;html=1;exitX=1;exitY=0.5;exitDx=0;exitDy=0;entryX=0.5;entryY=1;entryDx=0;entryDy=0;startArrow=classic;startFill=1;strokeWidth=3;" edge="1" parent="1" source="D90SZqqs-kmXxJXCQJgX-17" target="D90SZqqs-kmXxJXCQJgX-16">
          <mxGeometry relative="1" as="geometry" />
        </mxCell>
        <mxCell id="D90SZqqs-kmXxJXCQJgX-17" value="DDR" style="rounded=0;whiteSpace=wrap;html=1;fillColor=#fff2cc;strokeColor=#d6b656;fontSize=18;fontStyle=1" vertex="1" parent="1">
          <mxGeometry x="600" y="1280" width="280" height="80" as="geometry" />
        </mxCell>
        <mxCell id="D90SZqqs-kmXxJXCQJgX-28" value="Filter&lt;br style=&quot;font-size: 16px;&quot;&gt;Selection" style="text;html=1;align=center;verticalAlign=middle;whiteSpace=wrap;rounded=0;fontSize=16;" vertex="1" parent="1">
          <mxGeometry x="600" y="984" width="60" height="30" as="geometry" />
        </mxCell>
        <mxCell id="D90SZqqs-kmXxJXCQJgX-29" value="Gain Value" style="text;html=1;align=center;verticalAlign=middle;whiteSpace=wrap;rounded=0;fontSize=16;" vertex="1" parent="1">
          <mxGeometry x="817" y="984" width="60" height="30" as="geometry" />
        </mxCell>
      </root>
    </mxGraphModel>
  </diagram>
</mxfile>
